#!OML:ASF E:\Steps\Project 1\Capture day 1\Session 2\Subject.ASF
:FULLY-SPECIFIED
:DEGREES
368
root 3.39419 17.1566 8.00763 -154.262 -5.57319 177.529
lowerback -27.608 -2.63209 -5.87243
upperback -1.23767 -2.05669 -0.602825
thorax 14.2258 -1.51099 1.82857
lowerneck -2.08958 -1.84189 -0.416516
upperneck 5.96202 -2.64645 1.74874
head 2.25996 -1.32113 0.55278
rclavicle -3.37934e-015 5.1684e-015
rhumerus -36.665 -10.8944 -81.5526
rradius 42.2693
rwrist -8.68375
rhand -5.47156 -53.5773
rfingers 7.12502
rthumb 20.3403 -82.5321
lclavicle -3.37934e-015 5.1684e-015
lhumerus -31.2458 1.81627 80.467
lradius 27.209
lwrist -3.36223
lhand -21.1659 -11.2872
lfingers 7.12502
lthumb 5.21419 18.6286
rfemur -24.0191 7.80826 18.3705
rtibia 11.2821
rfoot -21.4212 -2.78871
rtoes -13.7467
lfemur -24.0269 -7.70594 -23.3072
ltibia 7.94893
lfoot -4.77884 -6.57036
ltoes -9.82933
369
root 3.3885 17.1548 7.99219 -154.347 -5.43859 177.472
lowerback -27.5349 -2.61643 -5.92593
upperback -1.32315 -2.03496 -0.6453
thorax 14.0815 -1.50447 1.82219
lowerneck -2.09013 -1.80715 -0.377008
upperneck 5.90496 -2.59609 1.71019
head 2.23928 -1.29561 0.535364
rclavicle 2.18663e-015 -1.98785e-015
rhumerus -36.9566 -10.8517 -81.5995
rradius 42.4178
rwrist -8.79509
rhand -5.10617 -53.7833
rfingers 7.12502
rthumb 20.6914 -82.7003
lclavicle 2.18663e-015 -1.98785e-015
lhumerus -31.6012 1.9701 80.3166
lradius 26.8768
lwrist -3.31058
lhand -21.6094 -11.5217
lfingers 7.12502
lthumb 4.78596 18.4042
rfemur -23.8097 7.75244 18.3073
rtibia 11.1571
rfoot -21.4251 -2.58854
rtoes -13.7446
lfemur -23.8661 -7.59514 -23.4572
ltibia 7.97976
lfoot -4.84936 -6.63587
ltoes -9.01667
370
root 3.38434 17.1521 7.97739 -154.402 -5.32675 177.461
lowerback -27.5432 -2.62671 -5.94406
upperback -1.38811 -2.0536 -0.663369
thorax 14.0093 -1.51558 1.80494
lowerneck -2.08627 -1.68798 -0.301897
upperneck 5.9427 -2.43555 1.61061
head 2.24625 -1.21694 0.49522
rclavicle 7.05686e-015 -1.43125e-014
rhumerus -37.0364 -10.8675 -81.6335
rradius 42.2713
rwrist -8.71435
rhand -4.61226 -53.5847
rfingers 7.12502
rthumb 21.1659 -82.4493
lclavicle 7.05686e-015 -1.43125e-014
lhumerus -31.9305 2.21242 80.0942
lradius 26.6471
lwrist -3.3276
lhand -21.6136 -11.3287
lfingers 7.12502
lthumb 4.78185 18.5973
rfemur -23.6575 7.75138 18.2887
rtibia 11.0661
rfoot -21.4042 -2.4766
rtoes -13.7776
lfemur -23.7287 -7.48145 -23.5477
ltibia 7.96417
lfoot -4.95701 -6.70611
ltoes -9.12854
371
root 3.38127 17.15 7.96576 -154.392 -5.25025 177.579
lowerback -27.711 -2.62384 -5.85489
upperback -1.39774 -2.07694 -0.614596
thorax 14.0896 -1.52498 1.79586
lowerneck -2.08416 -1.57272 -0.396331
upperneck 5.65095 -2.26788 1.70759
head 2.15104 -1.13033 0.547116
rclavicle -1.28216e-014 -2.0276e-014
rhumerus -36.9274 -10.9353 -81.6129
rradius 41.9464
rwrist -8.56269
rhand -4.44507 -53.146
rfingers 7.12502
rthumb 21.3265 -81.9925
lclavicle -1.28216e-014 -2.0276e-014
lhumerus -32.0804 2.55167 79.8967
lradius 26.3963
lwrist -3.44549
lhand -21.2035 -11.2473
lfingers 7.12502
lthumb 5.17786 18.6694
rfemur -23.6331 7.83246 18.4022
rtibia 11.0307
rfoot -21.3613 -2.4407
rtoes -13.5539
lfemur -23.6694 -7.38911 -23.4545
ltibia 7.87099
lfoot -4.95343 -6.69925
ltoes -9.98243
372
root 3.37908 17.1479 7.95574 -154.34 -5.15732 177.681
lowerback -27.8912 -2.61488 -5.78864
upperback -1.4138 -2.08529 -0.576731
thorax 14.1677 -1.52935 1.79285
lowerneck -2.1032 -1.57268 -0.530634
upperneck 5.29789 -2.26146 1.98546
head 2.04539 -1.12071 0.658404
rclavicle -1.00386e-014 -3.97569e-016
rhumerus -36.8699 -10.9324 -81.6263
rradius 41.6853
rwrist -8.53955
rhand -4.38433 -52.625
rfingers 7.12502
rthumb 21.3849 -81.4649
lclavicle -1.00386e-014 -3.97569e-016
lhumerus -32.2289 2.8512 79.7323
lradius 26.1295
lwrist -3.5918
lhand -20.8529 -11.4923
lfingers 7.12502
lthumb 5.51634 18.4159
rfemur -23.6797 7.92278 18.4839
rtibia 11.0148
rfoot -21.326 -2.3609
rtoes -13.181
lfemur -23.6731 -7.27481 -23.3653
ltibia 7.80426
lfoot -4.88865 -6.68299
ltoes -10.0768
373
root 3.37554 17.1448 7.94433 -154.295 -4.94262 177.656
lowerback -28.1241 -2.61636 -5.87098
upperback -1.02982 -2.04613 -0.539499
thorax 13.933 -1.51298 1.78501
lowerneck -2.09224 -1.62169 -0.636603
upperneck 4.93682 -2.32594 2.31984
head 1.93415 -1.14632 0.780901
rclavicle 5.26779e-015 -2.26615e-014
rhumerus -36.8791 -10.8493 -81.7206
rradius 41.5759
rwrist -8.6221
rhand -4.30487 -52.5684
rfingers 7.12502
rthumb 21.4612 -81.3996
lclavicle 5.26779e-015 -2.26615e-014
lhumerus -32.3662 3.27049 79.486
lradius 25.7704
lwrist -3.91827
lhand -20.627 -12.0314
lfingers 7.12502
lthumb 5.73445 17.871
rfemur -23.6991 7.96353 18.3966
rtibia 11.0013
rfoot -21.3752 -2.16089
rtoes -12.8994
lfemur -23.6008 -7.21605 -23.4489
ltibia 7.70278
lfoot -4.95198 -6.53707
ltoes -10.2122
374
root 3.37337 17.1434 7.93042 -154.353 -4.83113 177.643
lowerback -28.2478 -2.64698 -5.94524
upperback -0.987427 -2.05201 -0.532728
thorax 14.0418 -1.52253 1.82512
lowerneck -2.09654 -1.66259 -0.606073
upperneck 4.6831 -2.3749 2.40423
head 1.85446 -1.16761 0.801317
rclavicle -3.47873e-015 -1.47101e-014
rhumerus -36.8668 -10.9049 -81.7523
rradius 41.4646
rwrist -8.59564
rhand -4.21761 -53.2565
rfingers 7.12502
rthumb 21.545 -82.0782
lclavicle -3.47873e-015 -1.47101e-014
lhumerus -32.4786 3.79635 79.1896
lradius 25.2986
lwrist -4.14491
lhand -20.6226 -12.3761
lfingers 7.12502
lthumb 5.7387 17.5262
rfemur -23.5343 7.99037 18.3779
rtibia 10.9269
rfoot -21.4084 -2.13389
rtoes -13.2447
lfemur -23.3905 -7.19052 -23.5002
ltibia 7.56951
lfoot -5.03012 -6.46809
ltoes -10.6102
375
root 3.37247 17.1441 7.91976 -154.43 -4.90008 177.716
lowerback -28.1854 -2.68712 -5.91168
upperback -1.03348 -2.13158 -0.481529
thorax 13.9673 -1.55677 1.83465
lowerneck -2.2476 -1.80789 -0.333751
upperneck 4.72628 -2.56403 2.11861
head 1.8887 -1.26093 0.659477
rclavicle -3.67752e-015 -2.0276e-014
rhumerus -36.9421 -11.2052 -81.6148
rradius 41.1604
rwrist -8.3549
rhand -4.06252 -53.3016
rfingers 7.12502
rthumb 21.6939 -82.1061
lclavicle -3.67752e-015 -2.0276e-014
lhumerus -32.7 4.15873 78.937
lradius 24.8828
lwrist -4.15208
lhand -20.7082 -11.9966
lfingers 7.12502
lthumb 5.65606 17.9079
rfemur -23.3205 8.05603 18.4961
rtibia 10.7878
rfoot -21.3575 -2.26717
rtoes -13.7159
lfemur -23.2331 -7.17936 -23.4022
ltibia 7.51164
lfoot -5.05561 -6.56095
ltoes -10.2828
376
root 3.37038 17.1435 7.91238 -154.387 -4.9069 177.755
lowerback -28.0875 -2.70539 -5.91211
upperback -1.20002 -2.19485 -0.43626
thorax 13.7361 -1.58823 1.86483
lowerneck -2.37633 -1.96598 -0.196944
upperneck 4.68671 -2.76772 1.94561
head 1.89592 -1.36168 0.57606
rclavicle -1.27719e-014 -9.54166e-015
rhumerus -37.3008 -11.5452 -81.3835
rradius 40.8735
rwrist -8.13949
rhand -3.97949 -52.2805
rfingers 7.12502
rthumb 21.7737 -81.0757
lclavicle -1.27719e-014 -9.54166e-015
lhumerus -33.0786 4.40328 78.741
lradius 24.5469
lwrist -4.1662
lhand -20.8203 -11.3039
lfingers 7.12502
lthumb 5.54788 18.6034
rfemur -23.2798 8.16831 18.5122
rtibia 10.6632
rfoot -21.3133 -2.29266
rtoes -13.48
lfemur -23.2578 -7.14697 -23.3584
ltibia 7.52365
lfoot -5.11983 -6.61604
ltoes -9.9339
377
root 3.36932 17.1415 7.90405 -154.297 -4.80019 177.643
lowerback -28.0766 -2.7443 -6.09845
upperback -1.3327 -2.21402 -0.436263
thorax 13.5831 -1.61226 1.95939
lowerneck -2.36819 -1.95142 -0.263472
upperneck 4.43244 -2.7354 1.97316
head 1.81335 -1.3452 0.597628
rclavicle -6.90777e-015 -3.57812e-015
rhumerus -37.6232 -11.7597 -81.242
rradius 40.6016
rwrist -8.03441
rhand -4.20557 -51.4585
rfingers 7.12502
rthumb 21.5565 -80.2789
lclavicle -6.90777e-015 -3.57812e-015
lhumerus -33.4218 4.6771 78.5493
lradius 24.2177
lwrist -4.29565
lhand -20.9676 -10.9558
lfingers 7.12502
lthumb 5.4056 18.9552
rfemur -23.3763 8.29649 18.3257
rtibia 10.6975
rfoot -21.3805 -2.37601
rtoes -13.5337
lfemur -23.3497 -7.00734 -23.538
ltibia 7.58154
lfoot -5.15295 -6.7027
ltoes -10.1116
378
root 3.36825 17.141 7.8968 -154.281 -4.68404 177.564
lowerback -28.0951 -2.75531 -6.22363
upperback -1.3683 -2.19379 -0.461817
thorax 13.5501 -1.61226 2.00634
lowerneck -2.27671 -1.81989 -0.424488
upperneck 4.15425 -2.55441 2.19825
head 1.71181 -1.25383 0.701056
rclavicle -1.92821e-014 -4.05521e-014
rhumerus -37.6935 -11.9372 -81.1856
rradius 40.3298
rwrist -7.9927
rhand -4.28883 -52.0496
rfingers 7.12502
rthumb 21.4766 -80.879
lclavicle -1.92821e-014 -4.05521e-014
lhumerus -33.5858 5.02342 78.3016
lradius 23.8306
lwrist -4.52643
lhand -20.9893 -11.0527
lfingers 7.12502
lthumb 5.38469 18.8589
rfemur -23.4366 8.34353 18.2073
rtibia 10.806
rfoot -21.4509 -2.43038
rtoes -13.8937
lfemur -23.3839 -6.90721 -23.6658
ltibia 7.69249
lfoot -5.18727 -6.73701
ltoes -9.72256
379
root 3.36437 17.1408 7.8889 -154.317 -4.59711 177.623
lowerback -28.1576 -2.73869 -6.18103
upperback -1.35336 -2.18189 -0.446893
thorax 13.595 -1.60554 2.00151
lowerneck -2.13787 -1.67936 -0.641626
upperneck 3.9597 -2.36901 2.52485
head 1.63123 -1.1607 0.845702
rclavicle 9.39258e-015 2.46493e-014
rhumerus -37.6885 -12.1867 -81.0737
rradius 40.1583
rwrist -7.9971
rhand -4.16917 -53.3046
rfingers 7.12502
rthumb 21.5915 -82.1209
lclavicle 9.39258e-015 2.46493e-014
lhumerus -33.6433 5.50389 78.0101
lradius 23.3277
lwrist -4.92206
lhand -20.8722 -11.0324
lfingers 7.12502
lthumb 5.49772 18.8762
rfemur -23.3628 8.33121 18.2593
rtibia 10.7676
rfoot -21.4479 -2.32312
rtoes -14.1805
lfemur -23.3289 -6.99186 -23.5936
ltibia 7.75517
lfoot -5.27738 -6.547
ltoes -9.15501
380
root 3.36028 17.1395 7.87803 -154.338 -4.50584 177.669
lowerback -28.2773 -2.76022 -6.17351
upperback -1.32491 -2.20563 -0.423314
thorax 13.686 -1.61831 2.00892
lowerneck -2.09485 -1.62685 -0.674892
upperneck 3.82911 -2.29791 2.62204
head 1.58279 -1.12477 0.883718
rclavicle -4.57205e-015 1.98785e-015
rhumerus -37.7247 -12.3884 -80.9845
rradius 39.9068
rwrist -7.89973
rhand -4.3045 -53.6576
rfingers 7.12502
rthumb 21.4615 -82.4887
lclavicle -4.57205e-015 1.98785e-015
lhumerus -33.6971 5.90607 77.71
lradius 22.7773
lwrist -5.30877
lhand -20.8448 -10.6464
lfingers 7.12502
lthumb 5.52418 19.2616
rfemur -23.2517 8.39133 18.2714
rtibia 10.6467
rfoot -21.4413 -2.25676
rtoes -14.312
lfemur -23.2247 -7.07312 -23.5532
ltibia 7.69588
lfoot -5.31093 -6.35456
ltoes -9.41447
381
root 3.35794 17.1369 7.86695 -154.37 -4.42296 177.668
lowerback -28.3642 -2.77484 -6.20725
upperback -1.30359 -2.20605 -0.437578
thorax 13.7507 -1.62209 2.00776
lowerneck -2.22232 -1.72505 -0.548214
upperneck 3.46124 -2.41574 2.57874
head 1.48689 -1.18119 0.845561
rclavicle 9.0944e-015 2.90226e-014
rhumerus -37.8328 -12.6136 -80.8968
rradius 39.5669
rwrist -7.71444
rhand -4.35866 -53.4094
rfingers 7.12502
rthumb 21.4095 -82.2465
lclavicle 9.0944e-015 2.90226e-014
lhumerus -33.7421 6.11192 77.4265
lradius 22.2925
lwrist -5.49241
lhand -20.7654 -10.5415
lfingers 7.12502
lthumb 5.60082 19.3645
rfemur -23.1344 8.4728 18.2377
rtibia 10.5492
rfoot -21.4002 -2.24967
rtoes -13.9448
lfemur -23.0979 -7.04787 -23.5869
ltibia 7.60435
lfoot -5.31599 -6.32087
ltoes -9.72932
382
root 3.35449 17.1344 7.85736 -154.391 -4.37546 177.641
lowerback -28.4514 -2.77355 -6.23213
upperback -1.27614 -2.18648 -0.452843
thorax 13.8206 -1.61593 2.00847
lowerneck -2.26773 -1.79971 -0.640088
upperneck 2.74038 -2.49564 2.80449
head 1.27287 -1.22055 0.930601
rclavicle 1.98785e-014 3.37934e-014
rhumerus -37.9306 -12.9676 -80.7108
rradius 39.2238
rwrist -7.5505
rhand -4.29753 -53.2009
rfingers 7.12502
rthumb 21.4682 -82.0313
lclavicle 1.98785e-014 3.37934e-014
lhumerus -33.733 6.38241 77.1746
lradius 21.8374
lwrist -5.65951
lhand -20.4796 -10.5703
lfingers 7.12502
lthumb 5.87678 19.3282
rfemur -23.1326 8.51101 18.1968
rtibia 10.6947
rfoot -21.481 -2.27797
rtoes -13.7837
lfemur -23.0076 -7.03866 -23.653
ltibia 7.5526
lfoot -5.38444 -6.31426
ltoes -10.0618
